<svg data-name="Layer 1" xmlns="http://www.w3.org/2000/svg" viewBox="0 0 978.13 978.13"><path d="M489.06 978.12A489.18 489.18 0 0 1 298.68 38.45a489.18 489.18 0 0 1 380.76 901.22 486 486 0 0 1-190.38 38.45zm0-884.63c-218.12 0-395.57 177.45-395.57 395.57s177.45 395.57 395.57 395.57 395.57-177.45 395.57-395.57S707.18 93.49 489.06 93.49z"/><path d="M808.21 440.06H539.06V329.41h-116.1l-97.15 97.15 70.71 70.71 42.54-42.53v192.32h100v-107h178.8c-23.17 105-116.95 183.77-228.8 183.77-129.2 0-234.31-105.11-234.31-234.3s105.11-234.31 234.31-234.31A233.56 233.56 0 0 1 655 324.31l62.75-62.75-.35-.37a322 322 0 1 0 90.81 178.87z"/></svg>